HIERARCHY
ROOT Hips
{
	OFFSET 0.00000 0.00000 0.00000
	CHANNELS 6 Xposition Yposition Zposition Zrotation Yrotation Xrotation 
	JOINT LHipJoint
	{
		OFFSET 0 0 0
		CHANNELS 3 Zrotation Yrotation Xrotation
		JOINT LeftUpLeg
		{
			OFFSET 1.36337 -1.57426 1.11036
			CHANNELS 3 Zrotation Yrotation Xrotation
			JOINT LeftLeg
			{
				OFFSET 2.38468 -6.55187 0.00000
				CHANNELS 3 Zrotation Yrotation Xrotation
				JOINT LeftFoot
				{
					OFFSET 2.37166 -6.51609 0.00000
					CHANNELS 3 Zrotation Yrotation Xrotation
					JOINT LeftToeBase
					{
						OFFSET 0.29078 -0.79891 2.01393
						CHANNELS 3 Zrotation Yrotation Xrotation
						End Site
						{
							OFFSET 0.00000 -0.00000 1.07924
						}
					}
				}
			}
		}
	}
	JOINT RHipJoint
	{
		OFFSET 0 0 0
		CHANNELS 3 Zrotation Yrotation Xrotation
		JOINT RightUpLeg
		{
			OFFSET -1.36349 -1.57426 1.11036
			CHANNELS 3 Zrotation Yrotation Xrotation
			JOINT RightLeg
			{
				OFFSET -2.29562 -6.30717 0.00000
				CHANNELS 3 Zrotation Yrotation Xrotation
				JOINT RightFoot
				{
					OFFSET -2.40985 -6.62100 0.00000
					CHANNELS 3 Zrotation Yrotation Xrotation
					JOINT RightToeBase
					{
						OFFSET -0.23197 -0.63733 1.92232
						CHANNELS 3 Zrotation Yrotation Xrotation
						End Site
						{
							OFFSET -0.00000 -0.00000 1.01562
						}
					}
				}
			}
		}
	}
	JOINT LowerBack
	{
		OFFSET 0 0 0
		CHANNELS 3 Zrotation Yrotation Xrotation
		JOINT Spine
		{
			OFFSET -0.08565 2.03602 -0.24562
			CHANNELS 3 Zrotation Yrotation Xrotation
			JOINT Spine1
			{
				OFFSET -0.00036 2.05693 0.00216
				CHANNELS 3 Zrotation Yrotation Xrotation
				JOINT Neck
				{
					OFFSET 0 0 0
					CHANNELS 3 Zrotation Yrotation Xrotation
					JOINT Neck1
					{
						OFFSET -0.03664 1.69515 0.31789
						CHANNELS 3 Zrotation Yrotation Xrotation
						JOINT Head
						{
							OFFSET 0.00932 1.70181 -0.46013
							CHANNELS 3 Zrotation Yrotation Xrotation
							End Site
							{
								OFFSET 0.01243 1.77620 -0.19377
							}
						}
					}
				}
				JOINT LeftShoulder
				{
					OFFSET 0 0 0
					CHANNELS 3 Zrotation Yrotation Xrotation
					JOINT LeftArm
					{
						OFFSET 3.74344 0.81315 -0.36647
						CHANNELS 3 Zrotation Yrotation Xrotation
						JOINT LeftForeArm
						{
							OFFSET 4.97185 -0.00000 -0.00000
							CHANNELS 3 Zrotation Yrotation Xrotation
							JOINT LeftHand
							{
								OFFSET 3.35811 -0.00000 0.00000
								CHANNELS 3 Zrotation Yrotation Xrotation
								JOINT LeftFingerBase
								{
									OFFSET 0 0 0
									CHANNELS 3 Zrotation Yrotation Xrotation
									JOINT LeftHandIndex1
									{
										OFFSET 0.62278 -0.00000 0.00000
										CHANNELS 3 Zrotation Yrotation Xrotation
										End Site
										{
											OFFSET 0.50210 -0.00000 0.00000
										}
									}
								}
								JOINT LThumb
								{
									OFFSET 0 0 0
									CHANNELS 3 Zrotation Yrotation Xrotation
									End Site
									{
										OFFSET 0.50976 -0.00000 0.50976
									}
								}
							}
						}
					}
				}
				JOINT RightShoulder
				{
					OFFSET 0 0 0
					CHANNELS 3 Zrotation Yrotation Xrotation
					JOINT RightArm
					{
						OFFSET -3.75385 0.50666 -0.06525
						CHANNELS 3 Zrotation Yrotation Xrotation
						JOINT RightForeArm
						{
							OFFSET -4.96493 -0.00000 -0.00000
							CHANNELS 3 Zrotation Yrotation Xrotation
							JOINT RightHand
							{
								OFFSET -3.34929 -0.00000 0.00000
								CHANNELS 3 Zrotation Yrotation Xrotation
								JOINT RightFingerBase
								{
									OFFSET 0 0 0
									CHANNELS 3 Zrotation Yrotation Xrotation
									JOINT RightHandIndex1
									{
										OFFSET -0.63804 -0.00000 0.00000
										CHANNELS 3 Zrotation Yrotation Xrotation
										End Site
										{
											OFFSET -0.51441 -0.00000 0.00000
										}
									}
								}
								JOINT RThumb
								{
									OFFSET 0 0 0
									CHANNELS 3 Zrotation Yrotation Xrotation
									End Site
									{
										OFFSET -0.52226 -0.00000 0.52226
									}
								}
							}
						}
					}
				}
			}
		}
	}
}
MOTION
Frames: 7
Frame Time: .0083333
5.2738 16.9819 -1.11 0 0 0 0 0 0 -21 0 0 0 0 0 0 0 0 0 0 0 0 0 0 21 0 0 0 0 0 0 0 0 0 0 0 0 0 0 0 0 0 0 0 0 0 0 -16 0 0 21 0 0 11 0 0 0 -8 0 0 0 0 0 0 0 0 0 0 0 0 0 0 0 0 0 0 0 0 8 0 0 0 0 0 0 0 0 0 0 0 0 0 0 0 0 0
5.2738 16.9819 -1.1100 135.2390 -84.6279 -132.7180 0.0000 0.0000 0.0000 -18.8697 -6.4041 1.7573 0.7293 5.4565 15.2152 0.6615 14.8558 -26.9783 0.0776 1.7970 4.9450 0.0000 0.0000 0.0000 11.1876 -1.7756 2.4618 -0.1266 -2.2933 6.3168 0.2131 -14.9334 -18.7517 -0.0232 -0.9828 2.7016 -5.9889 -1.1882 -7.6834 0.1839 -0.9996 1.8915 3.4304 -0.7288 6.4218 -13.8757 -9.9528 -16.5803 6.4804 -13.2969 30.0857 2.4568 -6.7555 14.5600 0.0000 0.0000 0.0000 -91.7086 -3.0857 22.6949 11.1051 -18.4491 -1.8090 -0.0000 0.0000 -1.8634 21.7768 -12.0559 -4.7698 -7.1250 0.0000 -0.0000 -3.7778 17.0453 2.5100 0.0000 0.0000 0.0000 86.6300 1.4638 18.3829 -13.0056 21.2954 -2.4553 0.0000 -0.0000 -8.7574 -12.0093 -28.0741 5.7169 7.1250 -0.0000 -0.0000 20.4287 -57.3934 -6.3792
5.2805 16.9873 -1.1059 132.9380 -84.5356 -130.4260 0.0000 0.0000 0.0000 -19.1529 -6.7951 1.8613 0.7293 5.4563 15.2146 0.6992 14.8711 -27.2809 0.1008 2.0476 5.6372 0.0000 0.0000 0.0000 10.8671 -1.9196 2.5766 -0.1153 -2.1890 6.0282 0.2404 -15.0500 -18.5946 -0.0168 -0.8381 2.3034 -6.1401 -1.2570 -7.6039 0.1310 -1.0792 1.8986 3.4497 -0.7724 6.3951 -13.7335 -9.9356 -16.7805 6.2099 -13.2113 30.2669 2.3331 -6.7330 14.6367 -0.0000 0.0000 0.0000 -91.7418 -3.1293 22.6049 11.1245 -18.4789 -1.8152 -0.0000 0.0000 -1.9549 21.7621 -11.9747 -4.7348 -7.1250 0.0000 -0.0000 -3.7850 17.1333 2.5075 -0.0000 0.0000 0.0000 86.6979 1.4902 18.0131 -13.1100 21.4481 -2.4933 0.0000 -0.0000 -8.1668 -11.7599 -28.8290 5.7324 7.1250 -0.0000 -0.0000 21.2051 -58.0426 -6.9723
5.2873 16.9955 -1.1000 133.4740 -84.2787 -130.8850 0.0000 0.0000 0.0000 -19.3685 -6.8338 1.8527 0.7154 5.4051 15.0676 0.6634 15.1463 -27.3058 0.0956 1.9940 5.4891 0.0000 0.0000 0.0000 10.6205 -1.6468 2.3962 -0.1202 -2.2353 6.1563 0.2568 -15.1468 -18.5451 -0.0110 -0.6780 1.8632 -6.1498 -1.2040 -7.6458 0.0514 -1.0005 1.8950 3.3813 -0.7328 6.4053 -14.0111 -9.7299 -15.9478 6.7668 -13.0553 29.5747 2.6738 -6.6482 14.2015 0.0000 -0.0000 0.0000 -91.7084 -3.1908 22.6398 11.1313 -18.4892 -1.8173 -0.0000 0.0000 -2.0072 21.8970 -12.1035 -4.8174 -7.1250 0.0000 -0.0000 -3.6958 16.9832 2.4603 0.0000 -0.0000 0.0000 86.8198 1.5181 17.6256 -13.2271 21.6190 -2.5363 0.0000 -0.0000 -7.6057 -11.6217 -29.2885 5.7453 7.1250 -0.0000 -0.0000 21.6782 -58.4377 -7.3459
5.3042 17.0056 -1.0879 138.5580 -83.6725 -135.7120 0.0000 0.0000 0.0000 -19.5590 -6.9178 1.5672 0.7331 5.4703 15.2549 0.6820 15.6266 -27.9639 0.1064 2.1035 5.7917 0.0000 0.0000 0.0000 10.4303 -0.9351 2.6621 -0.0790 -1.8129 4.9888 0.3983 -15.7696 -17.7432 -0.0059 -0.4969 1.3653 -5.9102 -0.8938 -7.7655 -0.0708 -0.5972 1.8317 3.1713 -0.5203 6.3573 -14.0419 -9.7648 -15.8636 6.9293 -13.1482 29.4437 2.7288 -6.6713 14.1550 0.0000 -0.0000 0.0000 -91.5816 -3.2675 22.9066 11.1598 -18.5327 -1.8264 -0.0000 0.0000 -2.0636 21.9571 -12.0996 -4.8304 -7.1250 0.0000 -0.0000 -3.6538 16.9817 2.4323 0.0000 -0.0000 0.0000 87.0650 1.5693 16.9661 -13.2939 21.7163 -2.5610 0.0000 -0.0000 -7.0654 -11.8223 -29.0700 5.8072 7.1250 -0.0000 -0.0000 21.3135 -58.2796 -7.1330
5.3020 16.9891 -1.0948 137.5160 -83.7296 -134.9370 0.0000 0.0000 0.0000 -19.5954 -6.7822 1.8397 0.7415 5.5007 15.3422 0.7294 15.4230 -28.0913 0.1118 2.1559 5.9367 0.0000 0.0000 0.0000 10.4025 -1.3518 3.5938 -0.0465 -1.3922 3.8287 0.4550 -15.9940 -17.3603 -0.0120 -0.7087 1.9476 -5.9971 -0.9021 -7.6350 -0.1085 -0.6029 1.9587 3.1797 -0.5305 6.4193 -13.7325 -10.0040 -16.7485 6.3717 -13.3605 30.1702 2.3693 -6.7739 14.6197 0.0000 -0.0000 0.0000 -91.5092 -3.2458 23.1596 11.2487 -18.6685 -1.8548 -0.0000 0.0000 -2.1745 21.7317 -11.7034 -4.6224 -7.1250 0.0000 -0.0000 -3.7963 17.4256 2.4907 0.0000 -0.0000 0.0000 87.3259 1.6007 16.0370 -13.3276 21.7654 -2.5735 0.0000 -0.0000 -6.2922 -11.5992 -28.8160 5.6501 7.1250 -0.0000 -0.0000 21.3602 -57.9960 -7.0022
5.4590 17.0459 -1.1422 157.7060 -84.1612 -154.3120 0.0000 0.0000 0.0000 -16.8869 -7.3100 0.2816 0.7578 5.5596 15.5117 0.6347 16.1384 -28.1786 0.1501 2.4968 6.8808 0.0000 0.0000 0.0000 13.1121 -0.4658 3.3406 -0.0095 -0.6284 1.7267 0.5943 -16.4572 -16.1654 -0.0798 -1.8217 5.0131 -4.7804 -0.5476 -6.0525 0.6319 -0.3877 1.2767 3.3056 -0.3365 4.7662 -13.8426 -9.8604 -16.2541 6.5836 -13.2137 29.7855 2.5270 -6.7106 14.3504 -0.0000 -0.0000 0.0000 -91.5438 -3.1853 23.3024 11.3269 -18.7876 -1.8799 -0.0000 0.0000 -2.4837 21.4230 -11.2499 -4.3772 -7.1250 0.0000 -0.0000 -3.9977 17.9361 2.5786 -0.0000 -0.0000 0.0000 87.4642 1.6008 15.2681 -13.3473 21.7939 -2.5808 0.0000 -0.0000 -5.5604 -10.7534 -29.0952 5.2763 7.1250 -0.0000 -0.0000 22.4243 -58.0705 -7.4148
